<svg xmlns="http://www.w3.org/2000/svg" xmlns:xlink="http://www.w3.org/1999/xlink" width="2000" zoomAndPan="magnify" viewBox="0 0 1500 1499.999933" height="2000" preserveAspectRatio="xMidYMid meet" version="1.0"><defs><clipPath id="af0ddef3a8"><path d="M 150 152.183594 L 1350 152.183594 L 1350 1347.683594 L 150 1347.683594 Z M 150 152.183594 " clip-rule="nonzero"/></clipPath></defs><g clip-path="url(#af0ddef3a8)"><path fill="#0f2a35" d="M 1350.128906 752.257812 C 1350.128906 420.820312 1081.492188 152.183594 750.109375 152.183594 C 418.722656 152.183594 150.03125 420.820312 150.03125 752.257812 C 150.03125 1033.660156 343.753906 1269.824219 605.125 1334.667969 L 605.125 935.640625 L 481.359375 935.640625 L 481.359375 752.257812 L 605.125 752.257812 L 605.125 673.25 C 605.125 469.023438 697.542969 374.34375 898.054688 374.34375 C 936.078125 374.34375 1001.675781 381.773438 1028.496094 389.261719 L 1028.496094 555.464844 C 1014.332031 553.957031 989.71875 553.203125 959.179688 553.203125 C 860.785156 553.203125 822.761719 590.472656 822.761719 687.359375 L 822.761719 752.203125 L 1018.746094 752.203125 L 985.085938 935.589844 L 822.761719 935.589844 L 822.761719 1347.863281 C 1119.890625 1311.996094 1350.128906 1058.976562 1350.128906 752.203125 Z M 1350.128906 752.257812 " fill-opacity="1" fill-rule="nonzero"/></g></svg>