<svg xmlns="http://www.w3.org/2000/svg" xmlns:xlink="http://www.w3.org/1999/xlink" width="2000" zoomAndPan="magnify" viewBox="0 0 1500 1499.999933" height="2000" preserveAspectRatio="xMidYMid meet" version="1.0"><defs><clipPath id="8db9d14c9c"><path d="M 150 152.183594 L 1350 152.183594 L 1350 1347.683594 L 150 1347.683594 Z M 150 152.183594 " clip-rule="nonzero"/></clipPath></defs><g clip-path="url(#8db9d14c9c)"><path fill="#ffffff" d="M 1350.128906 752.195312 C 1350.128906 420.792969 1081.492188 152.183594 750.109375 152.183594 C 418.722656 152.183594 150.03125 420.792969 150.03125 752.195312 C 150.03125 1033.566406 343.753906 1269.703125 605.125 1334.542969 L 605.125 935.558594 L 481.359375 935.558594 L 481.359375 752.195312 L 605.125 752.195312 L 605.125 673.195312 C 605.125 468.988281 697.542969 374.320312 898.054688 374.320312 C 936.078125 374.320312 1001.675781 381.75 1028.496094 389.234375 L 1028.496094 555.421875 C 1014.332031 553.914062 989.71875 553.160156 959.179688 553.160156 C 860.785156 553.160156 822.761719 590.425781 822.761719 687.300781 L 822.761719 752.140625 L 1018.746094 752.140625 L 985.085938 935.503906 L 822.761719 935.503906 L 822.761719 1347.734375 C 1119.890625 1311.871094 1350.128906 1058.878906 1350.128906 752.140625 Z M 1350.128906 752.195312 " fill-opacity="1" fill-rule="nonzero"/></g></svg>