<svg xmlns="http://www.w3.org/2000/svg" xmlns:xlink="http://www.w3.org/1999/xlink" width="2000" zoomAndPan="magnify" viewBox="0 0 1500 1499.999933" height="2000" preserveAspectRatio="xMidYMid meet" version="1.0"><defs><clipPath id="afb4ef6abb"><path d="M 150 150 L 1350 150 L 1350 1350 L 150 1350 Z M 150 150 " clip-rule="nonzero"/></clipPath></defs><g clip-path="url(#afb4ef6abb)"><path fill="#0f2a35" d="M 501.351562 154.125 C 437.535156 157.121094 393.957031 167.351562 355.859375 182.273438 C 316.40625 197.648438 283 218.222656 249.765625 251.628906 C 216.472656 285.035156 196.011719 318.496094 180.804688 358.007812 C 166.054688 396.21875 156.046875 439.796875 153.222656 503.667969 C 150.394531 567.597656 149.773438 588.003906 150.054688 750.902344 C 150.339844 913.75 151.074219 934.210938 154.125 998.195312 C 157.179688 1062.011719 167.351562 1105.535156 182.273438 1143.6875 C 197.648438 1183.140625 218.222656 1216.492188 251.628906 1249.785156 C 285.035156 1283.074219 318.496094 1303.480469 358.007812 1318.742188 C 396.160156 1333.496094 439.796875 1343.554688 503.613281 1346.324219 C 567.597656 1349.152344 588.003906 1349.773438 750.847656 1349.433594 C 913.75 1349.152344 934.15625 1348.417969 998.140625 1345.363281 C 1061.953125 1342.3125 1105.476562 1332.082031 1143.632812 1317.214844 C 1183.085938 1301.785156 1216.492188 1281.265625 1249.726562 1247.863281 C 1282.960938 1214.457031 1303.425781 1180.992188 1318.6875 1141.484375 C 1333.4375 1103.328125 1343.5 1059.695312 1346.269531 995.933594 C 1349.039062 931.949219 1349.71875 911.488281 1349.433594 748.644531 C 1349.152344 585.796875 1348.359375 565.394531 1345.363281 501.410156 C 1342.3125 437.535156 1332.136719 394.011719 1317.214844 355.859375 C 1301.785156 316.40625 1281.265625 283.058594 1247.863281 249.765625 C 1214.457031 216.527344 1180.992188 196.011719 1141.484375 180.804688 C 1103.332031 166.050781 1059.695312 155.992188 995.878906 153.222656 C 931.894531 150.394531 911.433594 149.773438 748.585938 150.054688 C 585.742188 150.339844 565.335938 151.074219 501.351562 154.125 M 508.359375 1238.308594 C 449.914062 1235.765625 418.148438 1226.042969 396.953125 1217.902344 C 368.917969 1207.050781 348.964844 1194.050781 327.878906 1173.195312 C 306.855469 1152.222656 293.851562 1132.269531 282.886719 1104.347656 C 274.691406 1083.207031 264.800781 1051.496094 262.03125 992.996094 C 259.035156 929.800781 258.355469 910.808594 258.074219 750.679688 C 257.789062 590.601562 258.355469 571.609375 261.125 508.359375 C 263.613281 449.914062 273.390625 418.148438 281.53125 397.007812 C 292.382812 368.972656 305.328125 349.019531 326.242188 327.9375 C 347.210938 306.910156 367.164062 293.910156 395.144531 282.945312 C 416.285156 274.691406 447.992188 264.855469 506.4375 262.085938 C 569.6875 259.089844 588.625 258.46875 748.757812 258.128906 C 908.886719 257.789062 927.878906 258.355469 991.128906 261.183594 C 1049.574219 263.726562 1081.34375 273.390625 1102.480469 281.585938 C 1130.519531 292.441406 1150.527344 305.328125 1171.554688 326.296875 C 1192.582031 347.269531 1205.636719 367.164062 1216.546875 395.199219 C 1224.800781 416.285156 1234.636719 448.050781 1237.40625 506.4375 C 1240.398438 569.6875 1241.078125 588.679688 1241.359375 748.757812 C 1241.644531 908.886719 1241.078125 927.878906 1238.308594 991.074219 C 1235.765625 1049.519531 1226.042969 1081.34375 1217.902344 1102.480469 C 1207.050781 1130.460938 1194.105469 1150.472656 1173.136719 1171.496094 C 1152.167969 1192.46875 1132.269531 1205.523438 1104.234375 1216.492188 C 1083.152344 1224.742188 1051.386719 1234.578125 992.996094 1237.347656 C 929.746094 1240.34375 910.808594 1241.023438 750.621094 1241.304688 C 590.546875 1241.585938 571.554688 1241.023438 508.304688 1238.253906 M 997.292969 429.171875 C 997.347656 468.90625 1029.679688 501.070312 1069.359375 500.957031 C 1109.09375 500.898438 1141.257812 468.625 1141.199219 428.886719 C 1141.144531 389.152344 1108.8125 356.988281 1069.078125 357.046875 C 1029.339844 357.101562 997.179688 389.433594 997.234375 429.113281 M 441.777344 750.339844 C 442.113281 920.417969 580.257812 1057.996094 750.28125 1057.660156 C 920.363281 1057.320312 1057.996094 919.230469 1057.660156 749.152344 C 1057.320312 579.128906 919.175781 441.492188 749.09375 441.777344 C 579.070312 442.113281 441.4375 580.257812 441.777344 750.339844 M 549.792969 750.113281 C 549.625 639.722656 638.929688 550.019531 749.320312 549.847656 C 859.710938 549.625 949.414062 638.929688 949.640625 749.378906 C 949.867188 859.769531 860.503906 949.472656 750.113281 949.640625 C 639.722656 949.867188 550.019531 860.503906 549.847656 750.113281 " fill-opacity="1" fill-rule="nonzero"/></g></svg>