<svg xmlns="http://www.w3.org/2000/svg" xmlns:xlink="http://www.w3.org/1999/xlink" width="2000" zoomAndPan="magnify" viewBox="0 0 1500 1499.999933" height="2000" preserveAspectRatio="xMidYMid meet" version="1.0"><path fill="#0f2a35" d="M 1169.335938 1170.5625 L 992.050781 1170.5625 L 992.050781 892.960938 C 992.050781 826.761719 990.867188 741.558594 899.855469 741.558594 C 808.84375 741.558594 793.394531 813.679688 793.394531 888.167969 L 793.394531 1170.5625 L 616.109375 1170.5625 L 616.109375 599.683594 L 786.289062 599.683594 L 786.289062 677.726562 L 788.65625 677.726562 C 823.335938 618.40625 887.902344 582.9375 956.582031 585.53125 C 1136.238281 585.53125 1169.394531 703.722656 1169.394531 857.4375 L 1169.394531 1170.621094 Z M 416.15625 521.644531 C 359.316406 521.644531 313.300781 475.628906 313.246094 418.789062 C 313.1875 361.949219 359.257812 315.9375 416.097656 315.882812 C 472.9375 315.882812 518.949219 361.894531 519.007812 418.734375 C 519.0625 475.574219 472.996094 521.585938 416.15625 521.644531 M 504.796875 1170.5625 L 327.34375 1170.5625 L 327.34375 599.683594 L 504.796875 599.683594 Z M 1257.699219 151.28125 L 238.304688 151.28125 C 190.09375 150.773438 150.5625 189.34375 150 237.558594 L 150 1261.238281 C 150.5625 1309.449219 190.09375 1348.074219 238.304688 1347.566406 L 1257.753906 1347.566406 C 1306.082031 1348.1875 1345.722656 1309.5625 1346.398438 1261.238281 L 1346.398438 237.445312 C 1345.664062 189.175781 1306.023438 150.605469 1257.699219 151.226562 " fill-opacity="1" fill-rule="nonzero"/></svg>