<svg xmlns="http://www.w3.org/2000/svg" xmlns:xlink="http://www.w3.org/1999/xlink" width="1080" zoomAndPan="magnify" viewBox="0 0 810 1012.49997" height="1350" preserveAspectRatio="xMidYMid meet" version="1.0"><defs><clipPath id="cf73f7a2b2"><path d="M 46 273.765625 L 723 273.765625 L 723 738.539062 L 46 738.539062 Z M 46 273.765625 " clip-rule="nonzero"/></clipPath></defs><g clip-path="url(#cf73f7a2b2)"><path fill="#0abea2" d="M 83.730469 273.9375 L 301 273.9375 C 321.574219 273.9375 338.394531 290.765625 338.394531 311.328125 C 338.394531 478.292969 382.328125 738.734375 129.15625 738.734375 C 116.398438 738.734375 103.898438 737.609375 91.753906 735.480469 C 181.1875 719.761719 251.53125 648.671875 266.140625 558.871094 L 83.730469 558.871094 C 63.171875 558.875 46.335938 542.042969 46.335938 521.476562 L 46.335938 311.335938 C 46.335938 290.765625 63.171875 273.9375 83.730469 273.9375 Z M 464.835938 273.9375 L 682.105469 273.9375 C 702.671875 273.9375 719.5 290.765625 719.5 311.328125 C 719.5 478.292969 763.425781 738.734375 510.253906 738.734375 C 497.496094 738.734375 484.996094 737.609375 472.859375 735.480469 C 562.285156 719.761719 632.636719 648.671875 647.246094 558.871094 L 464.84375 558.871094 C 444.277344 558.871094 427.449219 542.042969 427.449219 521.476562 L 427.449219 311.335938 C 427.441406 290.765625 444.269531 273.9375 464.835938 273.9375 Z M 464.835938 273.9375 " fill-opacity="1" fill-rule="evenodd"/></g></svg>